HIERARCHY
ROOT Hips
{
  OFFSET 13.6774 106.653 -34.4427
  CHANNELS 6 Xposition Yposition Zposition Zrotation Xrotation Yrotation
  JOINT ToSpine
  {
    OFFSET -2.69724 7.43032 -0.144315
    CHANNELS 3 Zrotation Xrotation Yrotation
    JOINT Spine
    {
      OFFSET -0.0310711 10.7595 1.96963
      CHANNELS 3 Zrotation Xrotation Yrotation
      JOINT Spine1
      {
        OFFSET 19.9056 3.91189 0.764692
        CHANNELS 3 Zrotation Xrotation Yrotation
        JOINT Neck
        {
          OFFSET 25.9749 7.03908 -0.130764
          CHANNELS 3 Zrotation Xrotation Yrotation
          JOINT Head
          {
            OFFSET 9.52751 0.295786 -0.907742
            CHANNELS 3 Zrotation Xrotation Yrotation
            End Site
            {
              OFFSET 16.4037 0.713936 2.7358
            }
          }
        }
        JOINT LeftShoulder
        {
          OFFSET 17.7449 4.33886 11.7777
          CHANNELS 3 Zrotation Xrotation Yrotation
          JOINT LeftArm
          {
            OFFSET 0.911315 1.27913 9.80584
            CHANNELS 3 Zrotation Xrotation Yrotation
            JOINT LeftForeArm
            {
              OFFSET 28.6126 1.18197 -3.53199
              CHANNELS 3 Zrotation Xrotation Yrotation
              JOINT LeftHand
              {
                OFFSET 27.5088 0.0218783 0.327423
                CHANNELS 3 Zrotation Xrotation Yrotation
                End Site
                {
                  OFFSET 18.6038 -0.000155887 0.382096
                }
              }
            }
          }
        }
        JOINT RightShoulder
        {
          OFFSET 17.1009 2.89543 -12.2328
          CHANNELS 3 Zrotation Xrotation Yrotation
          JOINT RightArm
          {
            OFFSET 1.4228 0.178766 -10.211
            CHANNELS 3 Zrotation Xrotation Yrotation
            JOINT RightForeArm
            {
              OFFSET 28.733 1.87905 2.64907
              CHANNELS 3 Zrotation Xrotation Yrotation
              JOINT RightHand
              {
                OFFSET 27.4588 0.290562 -0.101845
                CHANNELS 3 Zrotation Xrotation Yrotation
                End Site
                {
                  OFFSET 17.8396 -0.255518 -0.000602873
                }
              }
            }
          }
        }
      }
    }
  }
  JOINT LeftUpLeg
  {
    OFFSET -5.61296 -2.22332 -10.2353
    CHANNELS 3 Zrotation Xrotation Yrotation
    JOINT LeftLeg
    {
      OFFSET 2.56703 -44.7417 -7.93097
      CHANNELS 3 Zrotation Xrotation Yrotation
      JOINT LeftFoot
      {
        OFFSET 3.16933 -46.5642 -3.96578
        CHANNELS 3 Zrotation Xrotation Yrotation
        JOINT LeftToeBase
        {
          OFFSET 0.346054 -6.02161 12.8035
          CHANNELS 3 Zrotation Xrotation Yrotation
          End Site
          {
            OFFSET 0.134235 -1.35082 5.13018
          }
        }
      }
    }
  }
  JOINT RightUpLeg
  {
    OFFSET -5.7928 -1.72406 10.6446
    CHANNELS 3 Zrotation Xrotation Yrotation
    JOINT RightLeg
    {
      OFFSET -2.57161 -44.7178 -7.85259
      CHANNELS 3 Zrotation Xrotation Yrotation
      JOINT RightFoot
      {
        OFFSET -3.10148 -46.5936 -4.03391
        CHANNELS 3 Zrotation Xrotation Yrotation
        JOINT RightToeBase
        {
          OFFSET -0.0828122 -6.13587 12.8035
          CHANNELS 3 Zrotation Xrotation Yrotation
          End Site
          {
            OFFSET -0.131328 -1.35082 5.13018
          }
        }
      }
    }
  }
}
MOTION
Frames:	11
Frame Time:	0.0333333
13.8142 106.646 -34.314 -6.14183 -71.7383 -95.4518 -70.1915 0 88.8779 62.1248 69.2289 22.3293 5.89296 18.9749 6.40837 -149.715 21.4362 174.95 -161.175 60.7055 -177.073 2.60363 -2.09361 -32.2211 -104.358 50.3214 -89.8264 -16.6487 49.8328 11.5919 8.96026 -0.63224 -6.16466 0.634806 -2.05001 45.0217 -84.6615 -35.9833 92.0094 -6.66326 -14.6584 8.06136 16.3654 -0.21388 -1.91055 -57.8669 -0.912329 95.7879 2.52047 17.9737 -0.426212 4.50157 -3.19255 -0.760602 -2.13203 -4.96125 2.62065 -59.9681 5.8405 83.5867 -1.51144 16.599 2.36016 -5.00102 -3.52364 0.874102 0.012651 -0.823363 -1.3067 
13.8048 106.658 -34.3148 -6.23986 -71.7466 -95.5396 -70.1915 0 88.8779 62.1049 69.2732 22.3402 5.87052 19.0041 6.48986 -149.639 21.4001 174.909 -160.714 60.6364 -177.3 2.60237 -2.16182 -32.395 -104.246 50.1763 -89.9743 -16.6647 49.7758 11.578 8.79992 -0.625838 -6.22362 0.636704 -2.05943 44.944 -84.805 -36.042 91.8678 -6.60603 -14.8932 8.06817 16.2087 -0.194854 -1.78774 -57.9206 -0.931667 95.7373 2.57058 17.8991 -0.388301 4.55436 -3.18792 -0.765358 -2.11366 -4.89003 2.80436 -59.9375 5.86565 83.6006 -1.5363 16.6779 2.4406 -4.85885 -3.49988 0.860428 0.0298015 -0.803474 -1.40752 
13.8014 106.66 -34.3235 -6.26899 -71.7361 -95.6237 -70.1915 0 88.8779 62.1198 69.2335 22.2951 5.8925 18.9883 6.38514 -149.743 21.4328 174.744 -160.592 60.6565 -177.699 2.6091 -2.04729 -32.1697 -104.076 50.366 -90.0765 -16.6949 49.6275 11.542 8.95768 -0.61641 -5.97171 0.632482 -2.043 45.0086 -84.6266 -36.0236 92.041 -6.68474 -14.5808 8.04928 16.2956 -0.228409 -2.02369 -57.9171 -0.943016 95.7722 2.50996 17.9006 -0.445985 4.48957 -3.1511 -0.75808 -2.16535 -5.0058 2.9828 -59.9482 5.80842 83.5787 -1.53348 16.6298 2.42501 -4.9618 -3.61333 0.873085 0.0388509 -0.65501 -1.26099 
13.7864 106.657 -34.3241 -6.17271 -71.7399 -95.514 -70.1915 0 88.8779 62.0727 69.2452 22.2769 5.86879 18.9534 6.55319 -149.739 21.4668 175.015 -161.002 60.7135 -177.283 2.6222 -2.03986 -32.3289 -104.395 50.3413 -89.887 -16.6746 50.0508 11.6456 8.90258 -0.635318 -6.25072 0.630808 -2.04562 44.8104 -84.9435 -36.129 91.8884 -6.7002 -14.9822 7.891 16.3594 -0.224383 -1.98759 -57.8403 -0.970342 95.7239 2.59785 18.0239 -0.417694 4.18286 -3.12102 -0.728455 -2.13235 -4.90848 3.05937 -59.9579 5.79335 83.5508 -1.4729 16.6044 2.38455 -5.06509 -3.5514 0.880727 0.0202194 -0.722192 -1.21715 
13.7769 106.653 -34.3351 -6.36253 -71.7449 -95.6923 -70.1915 0 88.8779 62.1422 69.2983 22.301 5.85617 19.0221 6.48849 -149.749 21.5272 175.063 -161.095 60.7782 -177.246 2.61075 -2.08772 -32.3042 -104.157 50.3793 -90.1118 -16.7034 49.8212 11.5892 8.93175 -0.625514 -6.10632 0.63844 -2.07409 44.7312 -85.098 -36.2384 91.7867 -6.66258 -15.2172 7.87117 16.4053 -0.228886 -2.01542 -57.9059 -0.923026 95.7538 2.56014 17.9349 -0.420131 4.35317 -3.20467 -0.747258 -2.06095 -4.71547 3.0759 -59.9309 5.84347 83.5846 -1.50715 16.6666 2.43756 -5.02589 -3.54041 0.876857 0.0148935 -0.793053 -1.27943 
13.7678 106.649 -34.3521 -6.50547 -71.7291 -95.8506 -70.1915 0 88.8779 62.2992 69.3284 22.268 5.79245 19.0758 6.32896 -149.752 21.497 175.185 -161.649 60.7903 -176.712 2.61455 -2.07853 -32.3307 -104.018 50.3121 -90.2078 -16.6991 49.6431 11.546 9.10967 -0.620273 -5.89389 0.638912 -2.0705 44.8521 -85.2001 -36.1287 91.7215 -6.69987 -15.1908 7.81457 16.3593 -0.241374 -2.1105 -57.8492 -0.882595 95.808 2.50591 18.0014 -0.316135 4.37268 -3.26266 -0.751057 -2.06567 -4.78601 2.6191 -59.9396 5.85421 83.6095 -1.51924 16.5957 2.43116 -5.07733 -3.52853 0.881227 0.00689976 -0.731801 -1.13056 
13.7701 106.648 -34.349 -6.42438 -71.7306 -95.7449 -70.1915 0 88.8779 62.3827 69.3545 22.2065 5.72775 19.0789 6.38798 -149.951 21.5569 175.686 -163.019 60.929 -175.584 2.61014 -2.1555 -32.4865 -104.136 50.1831 -90.1327 -16.6663 49.7369 11.5689 9.17275 -0.62151 -5.85971 0.653653 -2.1231 44.7566 -84.9928 -36.1588 91.8551 -6.77808 -14.9582 7.78023 16.5186 -0.263882 -2.25374 -57.8735 -0.950704 95.709 2.61602 17.9561 -0.39354 4.43538 -3.19165 -0.754423 -2.10696 -4.82901 3.15022 -59.9486 5.84367 83.5678 -1.47348 16.6061 2.49879 -5.06791 -3.50018 0.879604 0.0177295 -0.801024 -1.31282 
13.7575 106.651 -34.3477 -6.44768 -71.7186 -95.8381 -70.1915 0 88.8779 62.1277 69.3789 22.3718 5.81888 19.1211 6.43819 -149.952 21.5092 174.945 -160.537 60.7077 -177.933 2.60087 -2.18833 -32.4499 -103.866 50.2486 -90.275 -16.7093 49.444 11.4983 9.49411 -0.631416 -5.72441 0.666955 -2.16634 44.7694 -84.9186 -36.1176 91.913 -6.71058 -14.847 7.89841 16.6487 -0.290652 -2.42873 -57.9092 -0.965464 95.749 2.53517 17.88 -0.402365 4.3263 -3.13661 -0.742413 -2.08107 -4.76996 3.07028 -59.9226 5.82471 83.606 -1.55001 16.6188 2.43724 -5.01752 -3.56436 0.876761 0.000418548 -0.817787 -1.20581 
13.7462 106.659 -34.3598 -6.59303 -71.7239 -95.9583 -70.1915 0 88.8779 62.3711 69.3983 22.2028 5.75699 19.1059 6.45018 -150.005 21.5341 175.1 -160.743 60.7416 -177.764 2.61428 -2.13578 -32.488 -104.062 50.2533 -90.1439 -16.6514 49.5078 11.5139 9.41136 -0.632724 -5.80371 0.644249 -2.09818 44.6147 -85.1335 -36.2328 91.8345 -6.77909 -14.9284 7.77928 16.6947 -0.27116 -2.28476 -57.921 -0.955113 95.7227 2.59043 17.863 -0.34881 4.36571 -3.0574 -0.743365 -2.15668 -4.97713 3.0307 -59.943 5.79007 83.5228 -1.43806 16.5939 2.60054 -5.08106 -3.44863 0.879395 0.00598046 -0.840516 -1.2805 
13.732 106.655 -34.361 -6.45901 -71.7237 -95.814 -70.1915 0 88.8779 62.4225 69.3657 22.0934 5.72305 19.0613 6.46413 -150.036 21.4988 174.833 -160.258 60.6674 -178.373 2.61434 -2.1432 -32.5097 -104.252 50.213 -89.9469 -16.6271 49.7131 11.5636 9.13204 -0.616715 -5.83351 0.640881 -2.0852 44.659 -85.4667 -36.2596 91.6876 -6.76326 -15.3508 7.65508 16.7884 -0.259264 -2.18955 -57.9073 -0.932098 95.7331 2.57815 17.8875 -0.435916 4.31312 -3.16531 -0.742152 -2.04617 -4.66658 3.14952 -59.9448 5.79449 83.5077 -1.42105 16.5781 2.59118 -5.09858 -3.38633 0.879322 -0.0225183 -1.05032 -1.37152 
13.7111 106.653 -34.3656 -6.46735 -71.7424 -95.8433 -70.1915 0 88.8779 62.4831 69.4007 21.9928 5.70837 19.0583 6.5301 -150.151 21.598 175.054 -160.87 60.8138 -177.856 2.61888 -2.15103 -32.5952 -104.262 50.195 -89.8135 -16.6163 49.578 11.531 9.21126 -0.629079 -5.91807 0.639492 -2.07928 44.6904 -84.7378 -36.1587 91.974 -6.64865 -14.6284 8.07775 16.7417 -0.284637 -2.37398 -57.9127 -0.969839 95.7183 2.61185 17.8879 -0.30203 4.24592 -3.12611 -0.734526 -2.13486 -4.94744 2.7946 -59.9596 5.82583 83.5669 -1.47371 16.5627 2.45679 -5.19213 -3.43283 0.889218 -0.0380026 -0.984288 -1.15513 
